<svg width="25" height="25" viewBox="0 0 25 25" fill="none" xmlns="http://www.w3.org/2000/svg">
<g clip-path="url(#clip0_9_154)">
<path d="M8.25228 16.1623H21.0438C21.3606 16.1623 21.6384 15.9456 21.7242 15.6309L24.5564 5.37682C24.6172 5.15576 24.5755 4.91829 24.4415 4.73461C24.3073 4.55151 24.0986 4.44336 23.8758 4.44336H6.61778L6.11166 2.0874C6.03975 1.7519 5.75213 1.51367 5.42025 1.51367H1.125C0.733752 1.51367 0.416992 1.84135 0.416992 2.24609C0.416992 2.65102 0.733752 2.97852 1.125 2.97852H4.852L7.40875 14.8804C6.6565 15.2187 6.12825 15.9933 6.12825 16.8947C6.12825 18.1063 7.08112 19.092 8.25228 19.092H21.0438C21.4352 19.092 21.7518 18.7645 21.7518 18.3596C21.7518 17.9548 21.4352 17.6271 21.0438 17.6271H8.25228C7.86232 17.6271 7.54427 17.2989 7.54427 16.8947C7.54427 16.4906 7.86232 16.1623 8.25228 16.1623Z" fill="#4BA9FF"/>
<path d="M7.54419 21.2893C7.54419 22.501 8.49705 23.4866 9.6684 23.4866C10.8396 23.4866 11.7924 22.501 11.7924 21.2893C11.7924 20.0778 10.8396 19.092 9.6684 19.092C8.49705 19.092 7.54419 20.0778 7.54419 21.2893Z" fill="#4BA9FF"/>
<path d="M17.5037 21.2893C17.5037 22.501 18.4565 23.4866 19.6277 23.4866C20.799 23.4866 21.7517 22.501 21.7517 21.2893C21.7517 20.0778 20.799 19.092 19.6277 19.092C18.4565 19.092 17.5037 20.0778 17.5037 21.2893Z" fill="#4BA9FF"/>
</g>
<defs>
<clipPath id="clip0_9_154">
<rect width="24.1667" height="25" fill="white" transform="translate(0.416992)"/>
</clipPath>
</defs>
</svg>
